<mxfile host="app.diagrams.net" modified="2024-01-24T13:37:03.318Z" agent="Mozilla/5.0 (Windows NT 10.0; Win64; x64) AppleWebKit/537.36 (KHTML, like Gecko) Chrome/119.0.0.0 Safari/537.36 OPR/105.0.0.0" version="23.0.1" etag="pLbhQvEGQJkKP-6IhmYk" type="github">
  <diagram name="PÃ¡gina-1" id="KliAD-rGfUd0-Msj2gjf">
    <mxGraphModel>
      <root>
        <mxCell id="0" />
        <mxCell id="1" parent="0" />
      </root>
    </mxGraphModel>
  </diagram>
</mxfile>
